<svg width="46" height="46" viewBox="0 0 46 46" fill="none" xmlns="http://www.w3.org/2000/svg">
<path d="M34.5 15.3333H36.4167C38.45 15.3333 40.4 16.1411 41.8378 17.5788C43.2756 19.0166 44.0833 20.9667 44.0833 23C44.0833 25.0333 43.2756 26.9834 41.8378 28.4212C40.4 29.8589 38.45 30.6667 36.4167 30.6667H34.5" stroke="white" stroke-width="3.83333" stroke-linecap="round" stroke-linejoin="round"/>
<path d="M3.83333 15.3333H34.5V32.5833C34.5 34.6167 33.6923 36.5667 32.2545 38.0045C30.8167 39.4423 28.8667 40.25 26.8333 40.25H11.5C9.46667 40.25 7.51662 39.4423 6.07884 38.0045C4.64106 36.5667 3.83333 34.6167 3.83333 32.5833V15.3333Z" stroke="white" stroke-width="3.83333" stroke-linecap="round" stroke-linejoin="round"/>
<path d="M11.5 1.91667V7.66667" stroke="white" stroke-width="3.83333" stroke-linecap="round" stroke-linejoin="round"/>
<path d="M19.1667 1.91667V7.66667" stroke="white" stroke-width="3.83333" stroke-linecap="round" stroke-linejoin="round"/>
<path d="M26.8333 1.91667V7.66667" stroke="white" stroke-width="3.83333" stroke-linecap="round" stroke-linejoin="round"/>
</svg>
