<svg width="264" height="246" viewBox="0 0 264 246" fill="none" xmlns="http://www.w3.org/2000/svg">
<path d="M17.9202 230.406C16.6558 230.406 15.3887 230.466 14.1514 230.587L13.9713 230.605C5.76383 231.441 -0.239555 236.292 0.00734637 241.89L0.0550762 242.902C0.0865566 243.542 0.120093 244.23 0.147695 244.993C0.162645 245.369 0.608222 245.658 1.16266 245.658H203.047C217.28 245.559 231.463 245.433 245.197 245.285C247.774 245.292 250.35 245.138 252.908 244.825C256.725 244.304 259.374 243.272 261.008 241.67H261.009C263.04 239.683 263.104 237.18 262.981 234.353C262.731 228.645 262.483 222.647 262.235 216.669C262.016 211.399 261.799 206.144 261.581 201.113C261.446 198.127 261.147 195.491 258.84 193.477C256.339 191.299 251.779 190.194 245.285 190.194C245.207 190.194 245.129 190.194 245.049 190.195C224.698 190.278 204.534 198.343 194.873 210.264C193.76 211.637 192.723 213.106 191.721 214.528C190.255 216.71 188.638 218.786 186.88 220.74C185.904 221.793 184.834 222.755 183.683 223.613C183.604 223.675 183.514 223.742 183.419 223.806C183.202 223.969 182.975 224.126 182.754 224.266C181.474 225.121 180.107 225.837 178.676 226.403L178.533 226.459C178.425 226.503 178.309 226.547 178.192 226.588C177.367 226.892 176.527 227.151 175.674 227.364C171.991 228.299 167.803 228.523 163.228 228.029C159.002 227.558 154.847 226.583 150.853 225.123C146.616 223.58 142.65 221.655 138.814 219.795C137.13 218.977 135.387 218.132 133.647 217.331C133.32 217.18 132.998 217.033 132.671 216.885C130.546 215.931 128.619 215.142 126.78 214.475C122.264 212.823 117.539 211.814 112.742 211.478C107.681 211.158 103.22 211.761 99.4882 213.264C98.4514 213.681 97.449 214.179 96.4902 214.753C92.0697 217.399 89.3445 221.304 86.7093 225.08C83.4311 229.777 80.0413 234.635 73.3477 237.153C65.624 240.061 54.35 238.853 46.3737 236.752C43.8659 236.091 41.3613 235.331 38.9389 234.596C37.9606 234.299 36.9816 234.004 36.0019 233.711C34.0767 233.138 32.5011 232.699 31.0434 232.328L30.5823 232.21C30.3259 232.146 30.0692 232.082 29.8078 232.021C28.0764 231.602 26.4642 231.272 24.8764 231.013L24.5008 230.949C23.7477 230.835 23.0436 230.74 22.3527 230.66L22.0769 230.628C20.6964 230.479 19.3088 230.405 17.9202 230.406Z" fill="#F2F2F2"/>
<path d="M127.862 121.063C127.254 121.15 126.634 121.104 126.046 120.926C125.458 120.748 124.917 120.443 124.459 120.033C124.001 119.623 123.639 119.118 123.397 118.552C123.156 117.987 123.041 117.376 123.061 116.761L109.124 111.399L115.434 106.879L127.702 112.664C128.731 112.766 129.687 113.243 130.389 114.004C131.09 114.765 131.489 115.757 131.509 116.792C131.528 117.828 131.168 118.834 130.496 119.621C129.823 120.408 128.886 120.921 127.862 121.063L127.862 121.063Z" fill="#FFB7B7"/>
<path d="M119.898 117.216L122.074 109.531L121.967 109.458L101.583 95.5944L83.9621 77.8932L73.6978 81.999L74.3717 85.2516L74.4158 85.2915L97.8434 106.3L97.865 106.311L119.898 117.216Z" fill="#3F3D56"/>
<path d="M99.0158 134.77L67.469 130.343L70.2454 110.962H93.4704L99.0158 134.77Z" fill="#FFB6B6"/>
<path d="M45.4127 229.668L51.8841 231.174L60.7641 206.9L51.2132 204.679L45.4127 229.668Z" fill="#FFB6B6"/>
<path d="M39.3917 240.099L44.0324 241.179L45.879 236.985L46.9823 241.865L59.2907 244.729C59.8807 244.866 60.4991 244.811 61.0556 244.571C61.612 244.332 62.0775 243.921 62.384 243.398C62.6904 242.875 62.8219 242.267 62.7591 241.664C62.6963 241.061 62.4426 240.494 62.035 240.045L53.7834 230.962L54.8127 226.527L44.3308 224.74L39.3917 240.099Z" fill="#2F2E41"/>
<path d="M85.3422 233.279H91.986L95.1474 207.623H85.3422V233.279Z" fill="#FFB6B6"/>
<path d="M81.8357 244.803H86.6001L87.4505 240.3L89.6286 244.803H102.265C102.871 244.803 103.46 244.609 103.948 244.25C104.436 243.891 104.797 243.385 104.977 242.806C105.157 242.227 105.148 241.605 104.95 241.032C104.753 240.459 104.377 239.964 103.879 239.619L93.788 232.642V228.089L83.174 228.723L81.8357 244.803Z" fill="#2F2E41"/>
<path d="M67.07 127.054L97.9213 124.597C107.025 145.888 101.237 179.878 94.2402 218.14L84.3171 219.425L83.5474 157.942L58.6718 215.139L48.3296 214.61L67.07 127.054Z" fill="#2F2E41"/>
<path d="M85.0282 70.9874V60.5377C85.0282 56.824 83.5547 53.2624 80.9318 50.6365C78.3089 48.0105 74.7515 46.5352 71.0422 46.5352C67.3329 46.5352 63.7755 48.0105 61.1527 50.6365C58.5298 53.2624 57.0563 56.824 57.0563 60.5377C54.5912 65.6804 56.1334 68.1255 57.0563 70.9874C57.0571 71.4858 57.2552 71.9635 57.6072 72.3159C57.9592 72.6683 58.4363 72.8667 58.9341 72.8675H83.1494C83.6474 72.8669 84.1248 72.6687 84.4769 72.3162C84.8291 71.9638 85.0274 71.4859 85.0282 70.9874Z" fill="#2F2E41"/>
<path d="M74.4936 72.7099C80.1568 72.7099 84.7478 68.1136 84.7478 62.4437C84.7478 56.7738 80.1568 52.1775 74.4936 52.1775C68.8304 52.1775 64.2395 56.7738 64.2395 62.4437C64.2395 68.1136 68.8304 72.7099 74.4936 72.7099Z" fill="#FFB7B7"/>
<path d="M88.3369 61.3734C88.3335 58.4368 87.1669 55.6213 85.0928 53.5448C83.0187 51.4683 80.2066 50.3003 77.2734 50.297H75.1859C72.2527 50.3003 69.4406 51.4683 67.3665 53.5448C65.2924 55.6213 64.1257 58.4368 64.1224 61.3734V61.5825C65.6859 62.6526 67.1701 62.8091 68.5341 61.5825L70.0387 57.3643L70.3396 61.5824H72.6198L73.3799 59.4544L73.532 61.5825C76.6119 64.2085 82.4358 62.9501 88.3369 61.5825V61.3734Z" fill="#2F2E41"/>
<path d="M68.5144 116.627L94.6223 115.632L96.0817 98.5321C97.2071 95.4022 97.2254 92.7128 96.1358 90.5444C95.1986 88.7621 93.624 87.3995 91.7268 86.7292L86.014 79.8212C85.2791 78.9333 84.3564 78.22 83.3125 77.7327C82.2686 77.2455 81.1297 76.9965 79.9779 77.0037L65.1337 77.1053C64.776 76.89 62.6057 75.7857 58.3255 77.6425C53.6831 79.6569 54.7611 86.6553 54.7727 86.7256L54.7835 86.7914L54.8344 86.8361L64.7076 95.1623L68.5144 116.627Z" fill="#3F3D56"/>
<path d="M187.49 86.5612C170.643 105.57 119.954 109.195 86.9596 144.087C75.898 110.361 91.5682 52.1428 107.185 29.9411C114.685 19.2795 126.107 12.0372 138.94 9.80742C151.773 7.57768 164.965 10.5431 175.614 18.0514C197.79 33.6867 205.492 66.25 187.49 86.5612Z" fill="#018CD4"/>
<path d="M146.669 68.3257C155.515 68.3257 162.686 61.1465 162.686 52.2905C162.686 43.4344 155.515 36.2552 146.669 36.2552C137.824 36.2552 130.653 43.4344 130.653 52.2905C130.653 61.1465 137.824 68.3257 146.669 68.3257Z" fill="white"/>
<path d="M73.4202 161.551C79.2139 161.551 83.9106 156.849 83.9106 151.048C83.9106 145.248 79.2139 140.545 73.4202 140.545C67.6265 140.545 62.9298 145.248 62.9298 151.048C62.9298 156.849 67.6265 161.551 73.4202 161.551Z" fill="#018CD4"/>
<path d="M61.4191 150.288C60.9623 149.878 60.6009 149.371 60.3605 148.806C60.1201 148.24 60.0064 147.628 60.0275 147.014C60.0486 146.399 60.204 145.797 60.4826 145.249C60.7613 144.701 61.1565 144.221 61.6405 143.842L56.8192 129.695L64.3307 131.648L67.7539 144.783C68.3355 145.639 68.583 146.68 68.4495 147.707C68.3159 148.734 67.8106 149.676 67.0294 150.355C66.2481 151.034 65.2452 151.402 64.2108 151.39C63.1764 151.378 62.1825 150.986 61.4174 150.289L61.4191 150.288Z" fill="#FFB7B7"/>
<path d="M59.2654 141.703L66.5534 138.451L64.1049 113.771L66.3852 88.885L56.6547 83.6275L54.593 86.23V86.2891L53.5007 117.758L53.5066 117.782L59.2654 141.703Z" fill="#3F3D56"/>
<path d="M233.037 188.514C232.527 190.427 231.189 192.02 229.573 193.181C229.31 193.371 229.039 193.547 228.765 193.712C228.681 193.761 228.597 193.814 228.509 193.86C228.414 193.916 228.319 193.969 228.224 194.018H220.627C220.49 193.74 220.356 193.459 220.223 193.181C216.966 186.33 214.68 178.938 215.07 171.408C215.224 168.488 215.837 165.61 216.886 162.88C218.972 157.44 222.78 152.731 228.017 150.36C228.147 150.301 228.284 150.241 228.418 150.185C228.375 150.336 228.333 150.483 228.291 150.635C227.729 152.661 227.332 154.73 227.104 156.821C227.083 156.982 227.065 157.144 227.051 157.31C226.552 162.352 226.995 167.443 228.358 172.323C228.361 172.333 228.365 172.347 228.368 172.358C228.667 173.438 229.014 174.501 229.408 175.548C229.717 176.374 230.051 177.19 230.416 177.992C231.941 181.357 233.985 184.945 233.037 188.514Z" fill="#E6E6E6"/>
<path d="M228.512 150.343C228.439 150.441 228.365 150.536 228.291 150.635C226.748 152.682 225.438 154.895 224.385 157.232C224.329 157.348 224.276 157.464 224.231 157.584C222.788 160.848 221.861 164.317 221.484 167.867C221.48 167.891 221.477 167.916 221.477 167.941C221.389 168.771 221.336 169.608 221.315 170.445C221.237 172.014 221.406 173.585 221.817 175.101C222.192 176.339 222.849 177.473 223.735 178.414C223.823 178.509 223.911 178.604 224.006 178.695C224.076 178.769 224.153 178.843 224.227 178.913C224.937 179.592 225.713 180.221 226.38 180.949C226.686 181.276 226.962 181.629 227.206 182.004C227.594 182.634 227.845 183.338 227.942 184.072C228.039 184.805 227.979 185.551 227.768 186.26C227.29 188.039 226.198 189.541 225.081 190.972C224.522 191.69 223.946 192.414 223.447 193.181C223.265 193.455 223.096 193.733 222.941 194.018H222.499C222.646 193.733 222.808 193.455 222.984 193.181C224.266 191.159 226.089 189.421 227.034 187.195C227.673 185.694 227.866 183.991 227.058 182.518C226.822 182.089 226.535 181.69 226.205 181.329C225.562 180.601 224.793 179.979 224.094 179.321C223.918 179.156 223.746 178.987 223.581 178.811C222.705 177.921 222.03 176.854 221.6 175.681C221.112 174.192 220.882 172.63 220.918 171.064C220.918 170.065 220.971 169.059 221.069 168.06C221.08 167.934 221.094 167.804 221.108 167.674C221.826 161.388 224.212 155.411 228.017 150.36C228.088 150.262 228.161 150.167 228.235 150.072C228.386 149.875 228.664 150.149 228.512 150.343Z" fill="white"/>
<path d="M221.25 168.094C220.033 167.889 218.928 167.258 218.134 166.314C217.339 165.369 216.905 164.172 216.91 162.937C216.911 162.887 216.931 162.839 216.966 162.803C217.002 162.767 217.05 162.746 217.1 162.745C217.15 162.744 217.199 162.763 217.236 162.797C217.273 162.831 217.295 162.878 217.298 162.929C217.291 164.079 217.695 165.193 218.437 166.072C219.179 166.95 220.21 167.533 221.344 167.717C221.591 167.757 221.495 168.134 221.25 168.094Z" fill="white"/>
<path d="M223.638 178.485C225.705 177.038 227.151 174.865 227.689 172.398C227.742 172.153 228.118 172.249 228.065 172.493C227.501 175.059 225.991 177.317 223.837 178.818C223.631 178.961 223.433 178.627 223.638 178.485Z" fill="white"/>
<path d="M224.269 157.191C224.723 157.368 225.214 157.43 225.698 157.37C226.182 157.311 226.644 157.132 227.042 156.849C227.245 156.704 227.443 157.038 227.24 157.183C226.8 157.493 226.29 157.69 225.755 157.757C225.22 157.824 224.678 157.759 224.174 157.568C224.125 157.554 224.083 157.521 224.057 157.478C224.031 157.434 224.022 157.382 224.033 157.332C224.046 157.282 224.078 157.239 224.122 157.213C224.166 157.187 224.219 157.179 224.269 157.191Z" fill="white"/>
<path d="M254.864 163.942C254.741 164.037 254.615 164.132 254.492 164.231C252.824 165.508 251.263 166.92 249.824 168.451C249.711 168.567 249.599 168.686 249.49 168.806L249.486 168.809C246.074 172.519 243.375 176.828 241.527 181.519L241.516 181.551C241.513 181.561 241.509 181.568 241.506 181.579C240.773 183.457 240.183 185.387 239.739 187.354C239.31 189.274 238.959 191.331 238.288 193.181C238.186 193.466 238.074 193.747 237.954 194.018H222.337C222.39 193.74 222.446 193.459 222.502 193.181C223.297 189.106 224.538 185.131 226.205 181.329C226.261 181.203 226.317 181.076 226.38 180.949C227.24 179.071 228.252 177.265 229.405 175.551L229.405 175.55L229.406 175.549L229.407 175.548L229.408 175.548C230.041 174.612 230.721 173.71 231.445 172.843C233.324 170.605 235.543 168.678 238.021 167.132C238.035 167.121 238.053 167.114 238.067 167.104C242.999 164.041 248.844 162.581 254.432 163.844H254.436C254.58 163.875 254.72 163.907 254.864 163.942Z" fill="#E6E6E6"/>
<path d="M254.847 164.129C254.727 164.16 254.608 164.195 254.492 164.231C252.03 164.935 249.654 165.91 247.407 167.139C247.295 167.199 247.182 167.262 247.07 167.325C243.964 169.061 241.146 171.266 238.713 173.863C238.711 173.865 238.71 173.867 238.71 173.87C238.682 173.898 238.65 173.93 238.625 173.958C238.063 174.563 237.522 175.192 237.01 175.84C236.006 177.046 235.198 178.402 234.614 179.859C234.168 181.073 234.01 182.375 234.154 183.661C234.164 183.791 234.182 183.918 234.199 184.048C234.213 184.15 234.227 184.252 234.245 184.357C234.477 185.767 234.877 187.181 234.765 188.62C234.697 189.357 234.473 190.071 234.109 190.715C233.745 191.359 233.249 191.919 232.654 192.358C232.249 192.671 231.816 192.947 231.361 193.181C230.71 193.517 230.032 193.797 229.334 194.018H227.954C228.14 193.965 228.323 193.912 228.509 193.86C229.17 193.673 229.818 193.446 230.451 193.181C230.813 193.029 231.165 192.856 231.505 192.66C232.917 191.848 234.094 190.603 234.34 188.94C234.554 187.484 234.14 186.028 233.894 184.603C233.852 184.357 233.813 184.115 233.792 183.872C233.624 182.639 233.726 181.383 234.09 180.193C234.596 178.709 235.351 177.322 236.325 176.093C236.926 175.292 237.569 174.524 238.249 173.789C238.334 173.694 238.422 173.599 238.513 173.504C240.997 170.889 243.864 168.667 247.017 166.917H247.021C249.365 165.611 251.852 164.579 254.432 163.844H254.436C254.552 163.809 254.671 163.773 254.787 163.742C255.029 163.678 255.086 164.062 254.847 164.129Z" fill="white"/>
<path d="M238.374 173.923C237.526 173.026 237.023 171.856 236.957 170.623C236.89 169.39 237.263 168.173 238.01 167.19C238.162 166.991 238.477 167.218 238.325 167.417C237.628 168.331 237.28 169.465 237.345 170.613C237.409 171.761 237.881 172.849 238.676 173.679C238.849 173.86 238.546 174.102 238.374 173.923Z" fill="white"/>
<path d="M234.032 183.659C236.553 183.75 239.015 182.886 240.927 181.241C241.117 181.078 241.36 181.38 241.17 181.543C239.177 183.252 236.613 184.145 233.99 184.045C233.74 184.035 233.784 183.649 234.032 183.659Z" fill="white"/>
<path d="M247.341 167.038C247.597 167.453 247.952 167.798 248.375 168.042C248.797 168.286 249.273 168.422 249.761 168.436C250.01 168.443 249.967 168.829 249.719 168.822C249.18 168.804 248.655 168.654 248.187 168.385C247.72 168.117 247.326 167.737 247.039 167.281C247.008 167.24 246.994 167.189 247 167.139C247.005 167.088 247.03 167.041 247.068 167.008C247.109 166.976 247.16 166.961 247.211 166.967C247.262 166.972 247.309 166.998 247.341 167.038Z" fill="white"/>
<path d="M138.392 239.066C137.882 240.979 136.544 242.572 134.928 243.733C134.665 243.922 134.394 244.098 134.12 244.264C134.036 244.313 133.952 244.366 133.864 244.411C133.769 244.468 133.674 244.52 133.579 244.57H125.981C125.844 244.292 125.711 244.01 125.577 243.733C122.321 236.882 120.034 229.49 120.424 221.96C120.579 219.04 121.192 216.162 122.24 213.432C124.327 207.991 128.135 203.282 133.372 200.912C133.502 200.852 133.639 200.792 133.772 200.736C133.73 200.887 133.688 201.035 133.646 201.186C133.084 203.213 132.687 205.282 132.459 207.372C132.438 207.534 132.42 207.696 132.406 207.861C131.907 212.903 132.35 217.995 133.713 222.874C133.716 222.885 133.72 222.899 133.723 222.91C134.022 223.989 134.368 225.052 134.763 226.099C135.072 226.926 135.406 227.742 135.771 228.543C137.296 231.909 139.34 235.496 138.392 239.066Z" fill="#E6E6E6"/>
<path d="M133.867 200.894C133.794 200.993 133.72 201.088 133.646 201.186C132.103 203.233 130.793 205.446 129.74 207.784C129.684 207.9 129.631 208.016 129.585 208.136C128.142 211.4 127.216 214.869 126.839 218.419C126.834 218.443 126.832 218.468 126.832 218.492C126.744 219.322 126.691 220.159 126.67 220.996C126.592 222.565 126.761 224.137 127.172 225.653C127.547 226.891 128.203 228.025 129.09 228.965C129.178 229.06 129.266 229.155 129.361 229.247C129.431 229.321 129.508 229.395 129.582 229.465C130.291 230.144 131.068 230.773 131.735 231.501C132.041 231.828 132.317 232.181 132.561 232.556C132.949 233.186 133.2 233.89 133.297 234.624C133.394 235.357 133.334 236.103 133.123 236.811C132.645 238.591 131.553 240.093 130.435 241.524C129.877 242.241 129.301 242.966 128.802 243.733C128.619 244.007 128.451 244.285 128.296 244.569H127.854C128.001 244.285 128.163 244.007 128.338 243.733C129.621 241.71 131.444 239.973 132.389 237.747C133.028 236.245 133.221 234.543 132.413 233.07C132.176 232.641 131.89 232.242 131.56 231.881C130.917 231.153 130.147 230.53 129.448 229.873C129.273 229.708 129.101 229.539 128.936 229.363C128.06 228.473 127.385 227.405 126.954 226.233C126.467 224.744 126.237 223.182 126.273 221.615C126.273 220.617 126.326 219.611 126.424 218.612C126.435 218.485 126.449 218.355 126.463 218.225C127.181 211.94 129.567 205.962 133.372 200.912C133.442 200.814 133.516 200.719 133.59 200.624C133.741 200.427 134.018 200.701 133.867 200.894Z" fill="white"/>
<path d="M126.604 218.645C125.388 218.441 124.283 217.81 123.488 216.865C122.693 215.921 122.26 214.724 122.265 213.489C122.265 213.438 122.286 213.39 122.321 213.354C122.357 213.319 122.404 213.298 122.455 213.297C122.505 213.296 122.554 213.314 122.591 213.349C122.628 213.383 122.65 213.43 122.653 213.48C122.646 214.63 123.05 215.745 123.792 216.623C124.534 217.501 125.565 218.085 126.699 218.269C126.946 218.309 126.849 218.685 126.604 218.645Z" fill="white"/>
<path d="M128.993 229.036C131.06 227.59 132.506 225.416 133.044 222.949C133.097 222.705 133.473 222.8 133.42 223.044C132.856 225.61 131.346 227.869 129.191 229.37C128.986 229.513 128.788 229.178 128.993 229.036Z" fill="white"/>
<path d="M129.624 207.743C130.078 207.92 130.569 207.982 131.053 207.922C131.537 207.862 131.999 207.683 132.396 207.401C132.6 207.256 132.798 207.59 132.595 207.735C132.154 208.044 131.644 208.242 131.11 208.309C130.575 208.376 130.032 208.311 129.529 208.119C129.48 208.105 129.438 208.073 129.412 208.029C129.386 207.985 129.377 207.933 129.388 207.884C129.401 207.834 129.433 207.791 129.477 207.765C129.521 207.738 129.574 207.73 129.624 207.743Z" fill="white"/>
<path d="M160.219 214.494C160.096 214.589 159.97 214.684 159.847 214.782C158.179 216.06 156.618 217.471 155.179 219.002C155.066 219.118 154.954 219.238 154.845 219.358L154.841 219.361C151.428 223.07 148.73 227.379 146.882 232.071L146.871 232.103C146.868 232.113 146.864 232.12 146.861 232.131C146.128 234.008 145.537 235.939 145.094 237.905C144.665 239.825 144.314 241.883 143.643 243.733C143.541 244.017 143.429 244.299 143.309 244.57H127.692C127.745 244.292 127.801 244.01 127.857 243.733C128.652 239.658 129.893 235.683 131.559 231.881C131.616 231.754 131.672 231.628 131.735 231.501C132.595 229.623 133.607 227.817 134.759 226.103L134.76 226.102L134.76 226.1L134.762 226.1L134.763 226.099C135.396 225.164 136.076 224.261 136.8 223.395C138.679 221.157 140.898 219.23 143.376 217.684C143.39 217.673 143.408 217.666 143.422 217.656C148.353 214.592 154.199 213.133 159.787 214.395H159.791C159.935 214.427 160.075 214.459 160.219 214.494Z" fill="#E6E6E6"/>
<path d="M160.202 214.68C160.082 214.712 159.963 214.747 159.847 214.782C157.385 215.487 155.009 216.462 152.762 217.691C152.65 217.75 152.537 217.814 152.425 217.877C149.319 219.612 146.501 221.818 144.068 224.415C144.066 224.417 144.065 224.419 144.065 224.422C144.036 224.45 144.005 224.482 143.98 224.51C143.418 225.115 142.877 225.744 142.364 226.391C141.361 227.598 140.553 228.954 139.969 230.411C139.522 231.625 139.365 232.927 139.509 234.213C139.519 234.343 139.537 234.469 139.554 234.599C139.568 234.701 139.582 234.803 139.6 234.909C139.832 236.319 140.232 237.733 140.12 239.171C140.051 239.908 139.828 240.622 139.464 241.267C139.1 241.911 138.604 242.471 138.009 242.91C137.604 243.223 137.171 243.498 136.716 243.733C136.065 244.068 135.387 244.348 134.689 244.57H133.309C133.495 244.517 133.678 244.464 133.864 244.411C134.524 244.225 135.173 243.998 135.806 243.733C136.168 243.581 136.52 243.407 136.86 243.212C138.272 242.4 139.449 241.155 139.695 239.491C139.909 238.035 139.495 236.579 139.249 235.155C139.207 234.909 139.168 234.666 139.147 234.424C138.979 233.19 139.081 231.935 139.445 230.745C139.951 229.26 140.707 227.874 141.68 226.644C142.281 225.844 142.924 225.075 143.604 224.341C143.689 224.246 143.777 224.151 143.868 224.056C146.352 221.44 149.219 219.219 152.372 217.469H152.376C154.72 216.163 157.207 215.131 159.787 214.395H159.791C159.907 214.36 160.026 214.325 160.142 214.293C160.384 214.23 160.441 214.613 160.202 214.68Z" fill="white"/>
<path d="M143.729 224.474C142.88 223.578 142.378 222.408 142.311 221.175C142.245 219.941 142.618 218.724 143.365 217.741C143.517 217.543 143.832 217.77 143.68 217.968C142.983 218.883 142.635 220.016 142.699 221.165C142.764 222.313 143.236 223.4 144.031 224.231C144.204 224.411 143.9 224.654 143.729 224.474Z" fill="white"/>
<path d="M139.387 234.21C141.907 234.301 144.369 233.438 146.282 231.792C146.471 231.629 146.714 231.932 146.525 232.095C144.532 233.804 141.968 234.697 139.345 234.597C139.095 234.587 139.138 234.201 139.387 234.21Z" fill="white"/>
<path d="M152.696 217.589C152.952 218.005 153.307 218.35 153.729 218.594C154.152 218.838 154.628 218.973 155.115 218.988C155.365 218.994 155.322 219.38 155.074 219.374C154.535 219.356 154.009 219.206 153.542 218.937C153.075 218.668 152.681 218.289 152.394 217.833C152.363 217.792 152.349 217.741 152.355 217.69C152.36 217.64 152.385 217.593 152.423 217.56C152.463 217.528 152.515 217.513 152.566 217.518C152.617 217.524 152.664 217.549 152.696 217.589Z" fill="white"/>
<path d="M155.283 143.309C157.611 143.309 159.498 141.42 159.498 139.089C159.498 136.758 157.611 134.869 155.283 134.869C152.955 134.869 151.068 136.758 151.068 139.089C151.068 141.42 152.955 143.309 155.283 143.309Z" fill="#F2F2F2"/>
<path d="M207.646 92.7582C209.974 92.7582 211.862 90.8688 211.862 88.5381C211.862 86.2073 209.974 84.3179 207.646 84.3179C205.318 84.3179 203.431 86.2073 203.431 88.5381C203.431 90.8688 205.318 92.7582 207.646 92.7582Z" fill="#F2F2F2"/>
<path d="M62.9269 8.44031C65.2548 8.44031 67.1421 6.55088 67.1421 4.22015C67.1421 1.88943 65.2548 0 62.9269 0C60.5989 0 58.7117 1.88943 58.7117 4.22015C58.7117 6.55088 60.5989 8.44031 62.9269 8.44031Z" fill="#F2F2F2"/>
<path d="M0.438032 245.242H262.581C262.697 245.242 262.809 245.196 262.891 245.113C262.973 245.031 263.019 244.92 263.019 244.803C263.019 244.687 262.973 244.575 262.891 244.493C262.809 244.411 262.697 244.365 262.581 244.365H0.438032C0.321859 244.365 0.210446 244.411 0.1283 244.493C0.0461534 244.575 0 244.687 0 244.803C0 244.92 0.0461534 245.031 0.1283 245.113C0.210446 245.196 0.321859 245.242 0.438032 245.242Z" fill="#CCCCCC"/>
<path opacity="0.2" d="M160.527 44.6134C162.447 47.9 163.136 51.7634 162.471 55.5122C161.806 59.261 159.83 62.6505 156.897 65.0741C153.964 67.4976 150.265 68.7969 146.463 68.7396C142.66 68.6822 139.002 67.2718 136.143 64.7609C137.313 66.7677 138.905 68.4958 140.809 69.8257C142.713 71.1555 144.882 72.0552 147.167 72.4624C149.452 72.8697 151.799 72.7748 154.044 72.1844C156.289 71.5939 158.378 70.522 160.169 69.0428C161.959 67.5637 163.407 65.7126 164.411 63.6178C165.416 61.5231 165.954 59.2346 165.989 56.911C166.023 54.5874 165.552 52.2842 164.609 50.1608C163.666 48.0374 162.273 46.1446 160.527 44.6134Z" fill="#231F20"/>
<path opacity="0.2" d="M180.191 22.7401C193.339 39.76 195.606 64.2206 181.038 80.6582C164.76 99.0238 116.893 103.033 83.9156 134.753C84.4647 138.061 85.2574 141.324 86.2872 144.515C119.281 109.623 169.97 105.997 186.817 86.9885C203.314 68.3752 198.223 39.4751 180.191 22.7401Z" fill="#231F20"/>
</svg>
